<svg version="1.1" viewBox="0 0 64 64" xmlns="http://www.w3.org/2000/svg">
 <g transform="translate(-501.31 -494.03)">
  <path transform="translate(501.31 494.03)" d="m32 0a32 32 0 0 0-32 32 32 32 0 0 0 32 32 32 32 0 0 0 32-32 32 32 0 0 0-32-32zm10.438 11.93c1.0255-0.11765 0.38754 4.2844 0.14062 6.9277-0.21626 2.3151-0.33673 3.0777-0.76953 5.6328-0.13599 0.80282-0.53563 1.8311-1.7832 1.6836-1.0465-0.13266-1.2142-1.8557-1.1797-2.6543 0.05928-1.3714 0.80827-4.7118 1.0488-5.9121 0.30879-1.5408 1.2507-5.2175 2.4375-5.6523 0.036607-0.013412 0.07239-0.021595 0.10547-0.02539zm8.6035 1.8887c1.463 0.052857-1.1085 4.6669-2.1582 7.1055-0.73652 1.711-1.2641 3.0814-2.2188 5.3438-0.31657 0.75019-1.2904 1.8293-2.416 1.2715-0.94446-0.46808-0.62091-1.8444 0.0625-3.4395 0.98427-2.2974 1.7931-3.8329 2.834-5.5645 0.80727-1.3482 2.4911-4.5273 3.7422-4.707 0.055776-0.008014 0.1071-0.011471 0.1543-0.009766zm-24.758 1.2539c0.83137 0.05836 1.5245 0.42434 2 1 2.053 2.4856 1.6196 6.7518 1.7988 9.9941 3.2003 0.17413 5.8402 0.56234 9.25 1.5586 2.5987 0.75928 6.195 2.0308 8.3008 3.3984 2.098 1.3626 3.6718 3.1268 4 5.5 0.20362 1.4726-0.91588 2.9495-2.4512 4.2988-1.5328 1.3471-3.5375 2.6134-5.6992 3.8008-2.1607 1.1868-4.4075 2.2642-6.1992 3.0996-3.9098 1.8231-8.043 3.5997-13.113 4.1113-13.746 1.387-12.246-11.088-11.713-15.211 0.41542-3.2118 2.1344-7.8453 2.4199-8.6895-0.3742-1.1886-0.66568-2.1908-0.89453-3.4609-0.19444-1.0792-0.29929-2.3231-0.050781-3.4004 0.24489-1.0615 0.95884-2.2445 2.1406-2.7383 0.93681-0.3914 1.6245-0.23667 2.5 0.55664 0.72081 0.65311 1.3252 1.6205 1.9102 2.6328 0.84573 1.4634 1.1901 2.9822 1.9141 4.4688 0.13999 0.28732 0.8633 0.41968 1.2852 0.29687 0.09818-0.02858 0.20649-0.27511 0.15039-0.4668-0.92913-3.1772-1.5934-5.8042-1.1309-8.0996 0.42933-2.1308 2.246-2.5966 3.582-2.6504z" fill="#fff"/>
 </g>
</svg>
