<svg version="1.1" viewBox="0 0 383.96 80" xmlns="http://www.w3.org/2000/svg">
 <g transform="translate(-183.02 -492.36)">
  <g transform="matrix(1.4546 0 0 1.4546 -55.947 -246.41)" fill="#fff">
   <path d="m187.64 562.15c-0.45671-0.91338-1.0172-1.9305-1.6814-3.0515-0.6643-1.121-1.3908-2.2627-2.1796-3.4252-0.78886-1.204-1.5984-2.3872-2.4288-3.5497-0.83036-1.1625-1.6399-2.2627-2.4288-3.3006-0.78883 1.0379-1.5984 2.1589-2.4287 3.3629-0.83036 1.1625-1.6399 2.3457-2.4288 3.5497-0.74731 1.1625-1.4531 2.3042-2.1174 3.4252-0.66427 1.121-1.2248 2.1174-1.6814 2.9892h-5.9785c1.4531-2.8232 3.1761-5.6878 5.1689-8.594 2.0343-2.9477 4.0479-5.7501 6.0407-8.4072l-10.711-15.382h6.539l7.7222 11.334 7.7845-11.334h6.1653l-10.462 15.008c1.9928 2.6986 4.0271 5.5633 6.103 8.594 2.1173 2.9892 3.9026 5.9162 5.3557 8.7809h-6.3521"/>
   <path d="m223.68 561.22c-1.3286 0.33214-3.093 0.68503-5.2934 1.0587-2.1589 0.37365-4.6707 0.56048-7.5354 0.56048-2.491 0-4.5876-0.35289-6.2898-1.0587-1.7022-0.74731-3.0723-1.7852-4.1102-3.1138-1.0379-1.3285-1.7852-2.8854-2.2419-4.6707-0.45669-1.8268-0.68504-3.8403-0.68504-6.0408v-18.184h5.7916v16.939c-2e-5 3.9441 0.62275 6.7673 1.8683 8.4695 1.2455 1.7022 3.3421 2.5533 6.2898 2.5533 0.62274 1e-5 1.2662-0.0207 1.9306-0.0623 0.66425-0.0415 1.287-0.083 1.8683-0.12454 0.58121-0.083 1.1002-0.1453 1.5569-0.18683 0.49819-0.083 0.85108-0.16606 1.0587-0.24911v-27.339h5.7916v31.449"/>
   <path d="m235.3 531.2c0.70578-0.45666 1.7645-0.9341 3.1761-1.4323 1.4531-0.49818 3.1138-0.74728 4.9821-0.74731 2.3249 3e-5 4.38 0.41521 6.1653 1.2455 1.8267 0.83036 3.3629 1.9928 4.6084 3.4874 1.2455 1.4946 2.1796 3.2799 2.8024 5.3557 0.66425 2.0759 0.99639 4.3593 0.99641 6.8503-2e-5 2.6156-0.39444 4.9821-1.1832 7.0994-0.74735 2.0759-1.8268 3.8403-3.2384 5.2934-1.4116 1.4531-3.1138 2.5741-5.1066 3.3629-1.9928 0.78883-4.2348 1.1832-6.7258 1.1832-2.6986 0-5.0859-0.18683-7.1617-0.56049-2.0759-0.37365-3.7781-0.74731-5.1066-1.121v-46.395l5.7916-0.99641v17.375m0 25.907c0.58123 0.16608 1.3908 0.33215 2.4288 0.49821 1.0794 0.12456 2.408 0.18684 3.9857 0.18683 3.1138 1e-5 5.6048-1.0172 7.4731-3.0515 1.8682-2.0758 2.8024-5.0028 2.8024-8.7809-2e-5 -1.6607-0.16609-3.2176-0.4982-4.6707-0.33217-1.4531-0.87188-2.6986-1.6192-3.7366-0.74733-1.0794-1.723-1.9098-2.927-2.491-1.1625-0.62273-2.5741-0.93411-4.2347-0.93413-1.5777 2e-5 -3.0308 0.26988-4.3593 0.80958-1.3286 0.53975-2.3457 1.1002-3.0515 1.6814v20.489"/>
   <path d="m289.25 561.22c-1.3286 0.33214-3.093 0.68503-5.2934 1.0587-2.1589 0.37365-4.6707 0.56048-7.5354 0.56048-2.491 0-4.5877-0.35289-6.2898-1.0587-1.7022-0.74731-3.0723-1.7852-4.1102-3.1138-1.0379-1.3285-1.7852-2.8854-2.2419-4.6707-0.4567-1.8268-0.68503-3.8403-0.68503-6.0408v-18.184h5.7916v16.939c-1e-5 3.9441 0.62275 6.7673 1.8683 8.4695 1.2455 1.7022 3.3421 2.5533 6.2898 2.5533 0.62274 1e-5 1.2663-0.0207 1.9306-0.0623 0.66426-0.0415 1.287-0.083 1.8683-0.12454 0.58122-0.083 1.1002-0.1453 1.5569-0.18683 0.49818-0.083 0.85108-0.16606 1.0587-0.24911v-27.339h5.7916v31.449"/>
   <path d="m294.31 530.7c1.3285-0.3321 3.093-0.685 5.2934-1.0587 2.2004-0.37363 4.7329-0.56045 7.5976-0.56049 2.574 4e-5 4.7122 0.3737 6.4144 1.121 1.7022 0.70583 3.0515 1.723 4.0479 3.0515 1.0379 1.2871 1.7644 2.844 2.1797 4.6707 0.41513 1.8268 0.62272 3.8403 0.62275 6.0407v18.184h-5.7916v-16.939c-3e-5 -1.9928-0.14533-3.695-0.43593-5.1066-0.24913-1.4116-0.68506-2.5533-1.3078-3.4252-0.62277-0.87184-1.4531-1.4946-2.491-1.8683-1.038-0.41515-2.325-0.62273-3.8611-0.62276-0.62277 3e-5 -1.2663 0.0208-1.9305 0.0622-0.66429 0.0415-1.3078 0.10382-1.9306 0.18682-0.58125 0.0415-1.121 0.10382-1.6192 0.18683-0.4567 0.083-0.78883 0.14534-0.99641 0.18682v27.339h-5.7916v-31.449"/>
   <path d="m331.32 529.77h12.268v4.8575h-12.268v14.946c-2e-5 1.6192 0.12456 2.9685 0.37365 4.0479 0.24909 1.0379 0.62274 1.8683 1.121 2.491 0.49819 0.58124 1.121 0.99641 1.8683 1.2455 0.74729 0.2491 1.6192 0.37366 2.6156 0.37365 1.7437 1e-5 3.1345-0.18682 4.1725-0.56047 1.0794-0.41517 1.8267-0.70579 2.2419-0.87187l1.121 4.7952c-0.58126 0.29063-1.5984 0.64352-3.0515 1.0587-1.4531 0.45669-3.1138 0.68503-4.982 0.68503-2.2004 0-4.0272-0.26986-5.4802-0.80958-1.4116-0.58124-2.5533-1.4323-3.4252-2.5533-0.87186-1.121-1.4946-2.491-1.8683-4.1102-0.33213-1.6607-0.49821-3.5705-0.49821-5.7294v-28.896l5.7916-0.9964v10.026"/>
   <path d="m375.29 561.22c-1.3286 0.33214-3.093 0.68503-5.2934 1.0587-2.1589 0.37365-4.6707 0.56048-7.5354 0.56048-2.491 0-4.5876-0.35289-6.2898-1.0587-1.7022-0.74731-3.0723-1.7852-4.1102-3.1138-1.0379-1.3285-1.7852-2.8854-2.2419-4.6707-0.45668-1.8268-0.68504-3.8403-0.68502-6.0408v-18.184h5.7916v16.939c-1e-5 3.9441 0.62275 6.7673 1.8683 8.4695 1.2455 1.7022 3.3421 2.5533 6.2898 2.5533 0.62274 1e-5 1.2662-0.0207 1.9306-0.0623 0.66425-0.0415 1.287-0.083 1.8683-0.12454 0.58122-0.083 1.1002-0.1453 1.5569-0.18683 0.49818-0.083 0.85107-0.16606 1.0587-0.24911v-27.339h5.7916v31.449"/>
  </g>
  <g transform="matrix(1.0261 0 0 1.0261 -13.073 -14.552)" stroke-width=".97458">
   <circle cx="533.31" cy="526.03" r="32" fill="#04a"/>
   <path d="m524.01 511.75c-0.4625 2.2954 0.20212 4.9228 1.1312 8.1 0.0561 0.19169-0.0526 0.43697-0.15078 0.46555-0.42186 0.12281-1.1452-8e-3 -1.2852-0.29532-0.72398-1.4866-1.0683-3.0068-1.914-4.4702-0.58499-1.0123-1.1901-1.9781-1.9109-2.6312-0.87554-0.79331-1.5616-0.94921-2.4984-0.55781-1.1818 0.49374-1.8957 1.6775-2.1406 2.7391-0.24851 1.0773-0.14454 2.3208 0.0499 3.4 0.22885 1.2702 0.51999 2.2725 0.89419 3.461-0.2855 0.84414-2.0038 5.4771-2.4192 8.689-0.53329 4.1231-2.0331 16.599 11.713 15.212 5.0702-0.51159 9.2018-2.2885 13.112-4.1116 1.7917-0.83544 4.0393-1.9132 6.2-3.1 2.1617-1.1873 4.1672-2.4529 5.7-3.8 1.5353-1.3493 2.6536-2.8274 2.45-4.3-0.32815-2.3732-1.902-4.1374-4-5.5-2.1058-1.3676-5.7014-2.6385-8.3002-3.3978-3.4098-0.99625-6.0496-1.3835-9.2498-1.5576-0.1792-3.2423 0.25298-7.5089-1.8-9.9945-0.47548-0.57566-1.1686-0.94164-2-1-1.3361 0.0538-3.1519 0.51911-3.5812 2.6499z" fill="#fff"/>
   <path d="m540.16 517.55c-0.0345 0.79864 0.13261 2.5208 1.1791 2.6534 1.2476 0.14747 1.648-0.87975 1.784-1.6826 0.4328-2.5551 0.55306-3.3188 0.76932-5.634 0.25488-2.7286 0.92507-7.3314-0.24636-6.9022-1.1868 0.43483-2.1295 4.1113-2.4383 5.6521-0.24056 1.2003-0.98854 4.5418-1.0478 5.9132z" fill="#fff"/>
   <path d="m545.62 518.13c-0.68341 1.5951-1.0067 2.973-0.0622 3.4411 1.1256 0.55786 2.0984-0.52228 2.415-1.2725 0.95465-2.2623 1.4831-3.632 2.2196-5.343 1.0835-2.5172 3.7879-7.3526 2.0031-7.0961-1.2511 0.17976-2.934 3.3578-3.7413 4.706-1.0408 1.7316-1.85 3.2672-2.8343 5.5646z" fill="#fff"/>
  </g>
 </g>
</svg>
